<mxfile host="Electron" modified="2024-03-14T09:40:04.159Z" agent="Mozilla/5.0 (Windows NT 10.0; Win64; x64) AppleWebKit/537.36 (KHTML, like Gecko) draw.io/24.0.4 Chrome/120.0.6099.109 Electron/28.1.0 Safari/537.36" etag="KHeKdcEiFhmjSsa8IYKP" version="24.0.4" type="device">
  <diagram name="Pagina-1" id="v2-0MInxRcI36aHO6Gf-">
    <mxGraphModel dx="1050" dy="629" grid="1" gridSize="10" guides="1" tooltips="1" connect="1" arrows="1" fold="1" page="1" pageScale="1" pageWidth="827" pageHeight="1169" math="0" shadow="1">
      <root>
        <mxCell id="0" />
        <mxCell id="1" parent="0" />
        <mxCell id="ecqWGtto6fbXoAHAYbPy-17" style="edgeStyle=orthogonalEdgeStyle;rounded=0;orthogonalLoop=1;jettySize=auto;html=1;entryX=0;entryY=0.5;entryDx=0;entryDy=0;exitX=0.75;exitY=1;exitDx=0;exitDy=0;" parent="1" source="ecqWGtto6fbXoAHAYbPy-1" target="ecqWGtto6fbXoAHAYbPy-8" edge="1">
          <mxGeometry relative="1" as="geometry" />
        </mxCell>
        <mxCell id="ecqWGtto6fbXoAHAYbPy-18" style="edgeStyle=orthogonalEdgeStyle;rounded=0;orthogonalLoop=1;jettySize=auto;html=1;entryX=0;entryY=0.5;entryDx=0;entryDy=0;flowAnimation=0;shadow=1;textShadow=1;endArrow=classic;endFill=1;exitX=0.75;exitY=1;exitDx=0;exitDy=0;" parent="1" source="ecqWGtto6fbXoAHAYbPy-1" target="ecqWGtto6fbXoAHAYbPy-10" edge="1">
          <mxGeometry relative="1" as="geometry" />
        </mxCell>
        <mxCell id="ecqWGtto6fbXoAHAYbPy-19" style="edgeStyle=orthogonalEdgeStyle;rounded=0;orthogonalLoop=1;jettySize=auto;html=1;entryX=0;entryY=0.5;entryDx=0;entryDy=0;exitX=0.75;exitY=1;exitDx=0;exitDy=0;" parent="1" source="ecqWGtto6fbXoAHAYbPy-1" target="ecqWGtto6fbXoAHAYbPy-12" edge="1">
          <mxGeometry relative="1" as="geometry">
            <Array as="points">
              <mxPoint x="590" y="1180" />
              <mxPoint x="610" y="1180" />
            </Array>
          </mxGeometry>
        </mxCell>
        <mxCell id="ecqWGtto6fbXoAHAYbPy-130" style="edgeStyle=orthogonalEdgeStyle;rounded=0;orthogonalLoop=1;jettySize=auto;html=1;endArrow=doubleBlock;endFill=1;" parent="1" source="ecqWGtto6fbXoAHAYbPy-1" target="ecqWGtto6fbXoAHAYbPy-129" edge="1">
          <mxGeometry relative="1" as="geometry" />
        </mxCell>
        <mxCell id="ecqWGtto6fbXoAHAYbPy-139" style="edgeStyle=orthogonalEdgeStyle;rounded=0;orthogonalLoop=1;jettySize=auto;html=1;endArrow=doubleBlock;endFill=1;" parent="1" source="ecqWGtto6fbXoAHAYbPy-1" target="ecqWGtto6fbXoAHAYbPy-137" edge="1">
          <mxGeometry relative="1" as="geometry" />
        </mxCell>
        <mxCell id="ecqWGtto6fbXoAHAYbPy-145" style="edgeStyle=orthogonalEdgeStyle;rounded=0;orthogonalLoop=1;jettySize=auto;html=1;entryX=0.5;entryY=0;entryDx=0;entryDy=0;exitX=0.25;exitY=1;exitDx=0;exitDy=0;endArrow=doubleBlock;endFill=1;" parent="1" source="ecqWGtto6fbXoAHAYbPy-1" target="ecqWGtto6fbXoAHAYbPy-144" edge="1">
          <mxGeometry relative="1" as="geometry">
            <Array as="points">
              <mxPoint x="550" y="960" />
              <mxPoint x="550" y="1040" />
              <mxPoint x="480" y="1040" />
            </Array>
          </mxGeometry>
        </mxCell>
        <mxCell id="ecqWGtto6fbXoAHAYbPy-1" value="Albergo" style="rounded=0;whiteSpace=wrap;html=1;fillColor=#fff2cc;strokeColor=#d6b656;" parent="1" vertex="1">
          <mxGeometry x="500" y="900" width="120" height="60" as="geometry" />
        </mxCell>
        <mxCell id="ecqWGtto6fbXoAHAYbPy-93" style="edgeStyle=orthogonalEdgeStyle;rounded=0;orthogonalLoop=1;jettySize=auto;html=1;entryX=0;entryY=0.5;entryDx=0;entryDy=0;" parent="1" source="ecqWGtto6fbXoAHAYbPy-5" target="ecqWGtto6fbXoAHAYbPy-92" edge="1">
          <mxGeometry relative="1" as="geometry" />
        </mxCell>
        <mxCell id="ecqWGtto6fbXoAHAYbPy-100" style="edgeStyle=orthogonalEdgeStyle;rounded=0;orthogonalLoop=1;jettySize=auto;html=1;entryX=0;entryY=0.5;entryDx=0;entryDy=0;" parent="1" source="ecqWGtto6fbXoAHAYbPy-5" target="ecqWGtto6fbXoAHAYbPy-97" edge="1">
          <mxGeometry relative="1" as="geometry" />
        </mxCell>
        <mxCell id="ecqWGtto6fbXoAHAYbPy-101" style="edgeStyle=orthogonalEdgeStyle;rounded=0;orthogonalLoop=1;jettySize=auto;html=1;entryX=0;entryY=0.5;entryDx=0;entryDy=0;" parent="1" source="ecqWGtto6fbXoAHAYbPy-5" target="ecqWGtto6fbXoAHAYbPy-98" edge="1">
          <mxGeometry relative="1" as="geometry" />
        </mxCell>
        <mxCell id="ecqWGtto6fbXoAHAYbPy-148" style="edgeStyle=orthogonalEdgeStyle;rounded=0;orthogonalLoop=1;jettySize=auto;html=1;" parent="1" source="ecqWGtto6fbXoAHAYbPy-5" target="ecqWGtto6fbXoAHAYbPy-144" edge="1">
          <mxGeometry relative="1" as="geometry" />
        </mxCell>
        <mxCell id="ecqWGtto6fbXoAHAYbPy-5" value="Facility" style="rounded=0;whiteSpace=wrap;html=1;fillColor=#fff2cc;strokeColor=#d6b656;" parent="1" vertex="1">
          <mxGeometry x="500" y="1195" width="120" height="60" as="geometry" />
        </mxCell>
        <mxCell id="ecqWGtto6fbXoAHAYbPy-117" style="edgeStyle=orthogonalEdgeStyle;rounded=0;orthogonalLoop=1;jettySize=auto;html=1;entryX=0;entryY=0.5;entryDx=0;entryDy=0;" parent="1" source="ecqWGtto6fbXoAHAYbPy-6" target="ecqWGtto6fbXoAHAYbPy-111" edge="1">
          <mxGeometry relative="1" as="geometry" />
        </mxCell>
        <mxCell id="ecqWGtto6fbXoAHAYbPy-118" style="edgeStyle=orthogonalEdgeStyle;rounded=0;orthogonalLoop=1;jettySize=auto;html=1;entryX=0;entryY=0.5;entryDx=0;entryDy=0;" parent="1" source="ecqWGtto6fbXoAHAYbPy-6" target="ecqWGtto6fbXoAHAYbPy-114" edge="1">
          <mxGeometry relative="1" as="geometry" />
        </mxCell>
        <mxCell id="ecqWGtto6fbXoAHAYbPy-119" style="edgeStyle=orthogonalEdgeStyle;rounded=0;orthogonalLoop=1;jettySize=auto;html=1;entryX=0;entryY=0.5;entryDx=0;entryDy=0;" parent="1" source="ecqWGtto6fbXoAHAYbPy-6" target="ecqWGtto6fbXoAHAYbPy-115" edge="1">
          <mxGeometry relative="1" as="geometry" />
        </mxCell>
        <mxCell id="ecqWGtto6fbXoAHAYbPy-123" style="edgeStyle=orthogonalEdgeStyle;rounded=0;orthogonalLoop=1;jettySize=auto;html=1;entryX=0;entryY=0.5;entryDx=0;entryDy=0;" parent="1" source="ecqWGtto6fbXoAHAYbPy-6" target="ecqWGtto6fbXoAHAYbPy-121" edge="1">
          <mxGeometry relative="1" as="geometry" />
        </mxCell>
        <mxCell id="ecqWGtto6fbXoAHAYbPy-155" value="" style="edgeStyle=orthogonalEdgeStyle;rounded=0;orthogonalLoop=1;jettySize=auto;html=1;endArrow=doubleBlock;endFill=1;" parent="1" source="ecqWGtto6fbXoAHAYbPy-6" target="ecqWGtto6fbXoAHAYbPy-124" edge="1">
          <mxGeometry relative="1" as="geometry" />
        </mxCell>
        <mxCell id="ecqWGtto6fbXoAHAYbPy-163" value="" style="edgeStyle=orthogonalEdgeStyle;rounded=0;orthogonalLoop=1;jettySize=auto;html=1;" parent="1" source="ecqWGtto6fbXoAHAYbPy-6" target="ecqWGtto6fbXoAHAYbPy-124" edge="1">
          <mxGeometry relative="1" as="geometry" />
        </mxCell>
        <mxCell id="ecqWGtto6fbXoAHAYbPy-6" value="Cliente" style="rounded=0;whiteSpace=wrap;html=1;" parent="1" vertex="1">
          <mxGeometry x="1710" y="900" width="120" height="60" as="geometry" />
        </mxCell>
        <mxCell id="ecqWGtto6fbXoAHAYbPy-8" value="" style="ellipse;whiteSpace=wrap;html=1;aspect=fixed;" parent="1" vertex="1">
          <mxGeometry x="660" y="1005" width="40" height="40" as="geometry" />
        </mxCell>
        <mxCell id="ecqWGtto6fbXoAHAYbPy-9" value="Nome" style="text;html=1;align=center;verticalAlign=middle;whiteSpace=wrap;rounded=0;" parent="1" vertex="1">
          <mxGeometry x="690" y="1010" width="60" height="30" as="geometry" />
        </mxCell>
        <mxCell id="ecqWGtto6fbXoAHAYbPy-10" value="" style="ellipse;whiteSpace=wrap;html=1;aspect=fixed;" parent="1" vertex="1">
          <mxGeometry x="660" y="1055" width="40" height="40" as="geometry" />
        </mxCell>
        <mxCell id="ecqWGtto6fbXoAHAYbPy-11" value="Indirizzo" style="text;html=1;align=center;verticalAlign=middle;whiteSpace=wrap;rounded=0;" parent="1" vertex="1">
          <mxGeometry x="700" y="1060" width="60" height="30" as="geometry" />
        </mxCell>
        <mxCell id="ecqWGtto6fbXoAHAYbPy-12" value="" style="ellipse;whiteSpace=wrap;html=1;aspect=fixed;" parent="1" vertex="1">
          <mxGeometry x="660" y="1160" width="40" height="40" as="geometry" />
        </mxCell>
        <mxCell id="ecqWGtto6fbXoAHAYbPy-13" value="Valutazione" style="text;html=1;align=center;verticalAlign=middle;whiteSpace=wrap;rounded=0;" parent="1" vertex="1">
          <mxGeometry x="700" y="1165" width="60" height="30" as="geometry" />
        </mxCell>
        <mxCell id="ecqWGtto6fbXoAHAYbPy-153" style="edgeStyle=orthogonalEdgeStyle;rounded=0;orthogonalLoop=1;jettySize=auto;html=1;entryX=0;entryY=0.5;entryDx=0;entryDy=0;" parent="1" source="ecqWGtto6fbXoAHAYbPy-53" target="ecqWGtto6fbXoAHAYbPy-54" edge="1">
          <mxGeometry relative="1" as="geometry" />
        </mxCell>
        <mxCell id="ecqWGtto6fbXoAHAYbPy-154" style="edgeStyle=orthogonalEdgeStyle;rounded=0;orthogonalLoop=1;jettySize=auto;html=1;entryX=0;entryY=0.5;entryDx=0;entryDy=0;" parent="1" source="ecqWGtto6fbXoAHAYbPy-53" target="ecqWGtto6fbXoAHAYbPy-56" edge="1">
          <mxGeometry relative="1" as="geometry">
            <Array as="points">
              <mxPoint x="1430" y="1070" />
            </Array>
          </mxGeometry>
        </mxCell>
        <mxCell id="ecqWGtto6fbXoAHAYbPy-156" style="edgeStyle=orthogonalEdgeStyle;rounded=0;orthogonalLoop=1;jettySize=auto;html=1;entryX=0;entryY=0.5;entryDx=0;entryDy=0;" parent="1" source="ecqWGtto6fbXoAHAYbPy-53" target="ecqWGtto6fbXoAHAYbPy-124" edge="1">
          <mxGeometry relative="1" as="geometry" />
        </mxCell>
        <mxCell id="ecqWGtto6fbXoAHAYbPy-162" style="edgeStyle=orthogonalEdgeStyle;rounded=0;orthogonalLoop=1;jettySize=auto;html=1;" parent="1" source="ecqWGtto6fbXoAHAYbPy-53" target="ecqWGtto6fbXoAHAYbPy-160" edge="1">
          <mxGeometry relative="1" as="geometry" />
        </mxCell>
        <mxCell id="ecqWGtto6fbXoAHAYbPy-53" value="Prenotazione" style="rounded=0;whiteSpace=wrap;html=1;fillColor=#fff2cc;strokeColor=#d6b656;" parent="1" vertex="1">
          <mxGeometry x="1370" y="900" width="120" height="60" as="geometry" />
        </mxCell>
        <mxCell id="ecqWGtto6fbXoAHAYbPy-54" value="" style="ellipse;whiteSpace=wrap;html=1;aspect=fixed;" parent="1" vertex="1">
          <mxGeometry x="1460" y="1000" width="40" height="40" as="geometry" />
        </mxCell>
        <mxCell id="ecqWGtto6fbXoAHAYbPy-55" value="Data check-in" style="text;html=1;align=center;verticalAlign=middle;whiteSpace=wrap;rounded=0;" parent="1" vertex="1">
          <mxGeometry x="1500" y="1005" width="60" height="30" as="geometry" />
        </mxCell>
        <mxCell id="ecqWGtto6fbXoAHAYbPy-56" value="" style="ellipse;whiteSpace=wrap;html=1;aspect=fixed;" parent="1" vertex="1">
          <mxGeometry x="1460" y="1050" width="40" height="40" as="geometry" />
        </mxCell>
        <mxCell id="ecqWGtto6fbXoAHAYbPy-57" value="Data check-out" style="text;html=1;align=center;verticalAlign=middle;whiteSpace=wrap;rounded=0;" parent="1" vertex="1">
          <mxGeometry x="1500" y="1055" width="60" height="30" as="geometry" />
        </mxCell>
        <mxCell id="ecqWGtto6fbXoAHAYbPy-62" style="edgeStyle=orthogonalEdgeStyle;rounded=0;orthogonalLoop=1;jettySize=auto;html=1;entryX=0;entryY=0.5;entryDx=0;entryDy=0;" parent="1" source="ecqWGtto6fbXoAHAYbPy-66" target="ecqWGtto6fbXoAHAYbPy-67" edge="1">
          <mxGeometry relative="1" as="geometry" />
        </mxCell>
        <mxCell id="ecqWGtto6fbXoAHAYbPy-63" style="edgeStyle=orthogonalEdgeStyle;rounded=0;orthogonalLoop=1;jettySize=auto;html=1;entryX=0;entryY=0.5;entryDx=0;entryDy=0;flowAnimation=0;shadow=1;textShadow=1;endArrow=doubleBlock;endFill=1;" parent="1" source="ecqWGtto6fbXoAHAYbPy-66" target="ecqWGtto6fbXoAHAYbPy-69" edge="1">
          <mxGeometry relative="1" as="geometry" />
        </mxCell>
        <mxCell id="ecqWGtto6fbXoAHAYbPy-64" style="edgeStyle=orthogonalEdgeStyle;rounded=0;orthogonalLoop=1;jettySize=auto;html=1;entryX=0;entryY=0.5;entryDx=0;entryDy=0;" parent="1" source="ecqWGtto6fbXoAHAYbPy-66" target="ecqWGtto6fbXoAHAYbPy-71" edge="1">
          <mxGeometry relative="1" as="geometry" />
        </mxCell>
        <mxCell id="ecqWGtto6fbXoAHAYbPy-131" style="edgeStyle=orthogonalEdgeStyle;rounded=0;orthogonalLoop=1;jettySize=auto;html=1;" parent="1" source="ecqWGtto6fbXoAHAYbPy-66" target="ecqWGtto6fbXoAHAYbPy-129" edge="1">
          <mxGeometry relative="1" as="geometry" />
        </mxCell>
        <mxCell id="ecqWGtto6fbXoAHAYbPy-136" style="edgeStyle=orthogonalEdgeStyle;rounded=0;orthogonalLoop=1;jettySize=auto;html=1;entryX=0;entryY=0.5;entryDx=0;entryDy=0;" parent="1" source="ecqWGtto6fbXoAHAYbPy-66" target="ecqWGtto6fbXoAHAYbPy-134" edge="1">
          <mxGeometry relative="1" as="geometry" />
        </mxCell>
        <mxCell id="ecqWGtto6fbXoAHAYbPy-66" value="Camera" style="rounded=0;whiteSpace=wrap;html=1;fillColor=#fff2cc;strokeColor=#d6b656;" parent="1" vertex="1">
          <mxGeometry x="1010" y="900" width="120" height="60" as="geometry" />
        </mxCell>
        <mxCell id="ecqWGtto6fbXoAHAYbPy-67" value="" style="ellipse;whiteSpace=wrap;html=1;aspect=fixed;" parent="1" vertex="1">
          <mxGeometry x="1110" y="1010" width="40" height="40" as="geometry" />
        </mxCell>
        <mxCell id="ecqWGtto6fbXoAHAYbPy-68" value="Numero&amp;nbsp;&lt;div&gt;Unico&lt;/div&gt;" style="text;html=1;align=center;verticalAlign=middle;whiteSpace=wrap;rounded=0;" parent="1" vertex="1">
          <mxGeometry x="1150" y="1015" width="60" height="30" as="geometry" />
        </mxCell>
        <mxCell id="ecqWGtto6fbXoAHAYbPy-69" value="" style="ellipse;whiteSpace=wrap;html=1;aspect=fixed;" parent="1" vertex="1">
          <mxGeometry x="1110" y="1060" width="40" height="40" as="geometry" />
        </mxCell>
        <mxCell id="ecqWGtto6fbXoAHAYbPy-70" value="Tipo" style="text;html=1;align=center;verticalAlign=middle;whiteSpace=wrap;rounded=0;" parent="1" vertex="1">
          <mxGeometry x="1140" y="1065" width="60" height="30" as="geometry" />
        </mxCell>
        <mxCell id="ecqWGtto6fbXoAHAYbPy-71" value="" style="ellipse;whiteSpace=wrap;html=1;aspect=fixed;" parent="1" vertex="1">
          <mxGeometry x="1110" y="1110" width="40" height="40" as="geometry" />
        </mxCell>
        <mxCell id="ecqWGtto6fbXoAHAYbPy-72" value="Tariffa" style="text;html=1;align=center;verticalAlign=middle;whiteSpace=wrap;rounded=0;" parent="1" vertex="1">
          <mxGeometry x="1140" y="1115" width="60" height="30" as="geometry" />
        </mxCell>
        <mxCell id="ecqWGtto6fbXoAHAYbPy-75" style="edgeStyle=orthogonalEdgeStyle;rounded=0;orthogonalLoop=1;jettySize=auto;html=1;entryX=0;entryY=0.5;entryDx=0;entryDy=0;" parent="1" source="ecqWGtto6fbXoAHAYbPy-78" target="ecqWGtto6fbXoAHAYbPy-79" edge="1">
          <mxGeometry relative="1" as="geometry" />
        </mxCell>
        <mxCell id="ecqWGtto6fbXoAHAYbPy-76" style="edgeStyle=orthogonalEdgeStyle;rounded=0;orthogonalLoop=1;jettySize=auto;html=1;entryX=0;entryY=0.5;entryDx=0;entryDy=0;flowAnimation=0;shadow=1;textShadow=1;endArrow=classic;endFill=1;" parent="1" source="ecqWGtto6fbXoAHAYbPy-78" target="ecqWGtto6fbXoAHAYbPy-81" edge="1">
          <mxGeometry relative="1" as="geometry" />
        </mxCell>
        <mxCell id="ecqWGtto6fbXoAHAYbPy-77" style="edgeStyle=orthogonalEdgeStyle;rounded=0;orthogonalLoop=1;jettySize=auto;html=1;entryX=0;entryY=0.5;entryDx=0;entryDy=0;" parent="1" source="ecqWGtto6fbXoAHAYbPy-78" target="ecqWGtto6fbXoAHAYbPy-83" edge="1">
          <mxGeometry relative="1" as="geometry" />
        </mxCell>
        <mxCell id="ecqWGtto6fbXoAHAYbPy-87" style="edgeStyle=orthogonalEdgeStyle;rounded=0;orthogonalLoop=1;jettySize=auto;html=1;entryX=0;entryY=0.5;entryDx=0;entryDy=0;" parent="1" source="ecqWGtto6fbXoAHAYbPy-78" target="ecqWGtto6fbXoAHAYbPy-85" edge="1">
          <mxGeometry relative="1" as="geometry" />
        </mxCell>
        <mxCell id="ecqWGtto6fbXoAHAYbPy-91" style="edgeStyle=orthogonalEdgeStyle;rounded=0;orthogonalLoop=1;jettySize=auto;html=1;entryX=0;entryY=0.5;entryDx=0;entryDy=0;" parent="1" source="ecqWGtto6fbXoAHAYbPy-78" target="ecqWGtto6fbXoAHAYbPy-89" edge="1">
          <mxGeometry relative="1" as="geometry" />
        </mxCell>
        <mxCell id="ecqWGtto6fbXoAHAYbPy-138" style="edgeStyle=orthogonalEdgeStyle;rounded=0;orthogonalLoop=1;jettySize=auto;html=1;" parent="1" source="ecqWGtto6fbXoAHAYbPy-78" target="ecqWGtto6fbXoAHAYbPy-137" edge="1">
          <mxGeometry relative="1" as="geometry" />
        </mxCell>
        <mxCell id="ecqWGtto6fbXoAHAYbPy-78" value="Dipendenti" style="rounded=0;whiteSpace=wrap;html=1;fillColor=#fff2cc;strokeColor=#d6b656;" parent="1" vertex="1">
          <mxGeometry x="150" y="900" width="120" height="60" as="geometry" />
        </mxCell>
        <mxCell id="ecqWGtto6fbXoAHAYbPy-79" value="" style="ellipse;whiteSpace=wrap;html=1;aspect=fixed;" parent="1" vertex="1">
          <mxGeometry x="250" y="1010" width="40" height="40" as="geometry" />
        </mxCell>
        <mxCell id="ecqWGtto6fbXoAHAYbPy-80" value="Posizione" style="text;html=1;align=center;verticalAlign=middle;whiteSpace=wrap;rounded=0;" parent="1" vertex="1">
          <mxGeometry x="290" y="1015" width="60" height="30" as="geometry" />
        </mxCell>
        <mxCell id="ecqWGtto6fbXoAHAYbPy-81" value="" style="ellipse;whiteSpace=wrap;html=1;aspect=fixed;" parent="1" vertex="1">
          <mxGeometry x="250" y="1060" width="40" height="40" as="geometry" />
        </mxCell>
        <mxCell id="ecqWGtto6fbXoAHAYbPy-82" value="Nome&amp;nbsp;" style="text;html=1;align=center;verticalAlign=middle;whiteSpace=wrap;rounded=0;" parent="1" vertex="1">
          <mxGeometry x="283" y="1065" width="60" height="30" as="geometry" />
        </mxCell>
        <mxCell id="ecqWGtto6fbXoAHAYbPy-83" value="" style="ellipse;whiteSpace=wrap;html=1;aspect=fixed;" parent="1" vertex="1">
          <mxGeometry x="250" y="1110" width="40" height="40" as="geometry" />
        </mxCell>
        <mxCell id="ecqWGtto6fbXoAHAYbPy-84" value="Cognome" style="text;html=1;align=center;verticalAlign=middle;whiteSpace=wrap;rounded=0;" parent="1" vertex="1">
          <mxGeometry x="290" y="1115" width="60" height="30" as="geometry" />
        </mxCell>
        <mxCell id="ecqWGtto6fbXoAHAYbPy-85" value="" style="ellipse;whiteSpace=wrap;html=1;aspect=fixed;" parent="1" vertex="1">
          <mxGeometry x="250" y="1160" width="40" height="40" as="geometry" />
        </mxCell>
        <mxCell id="ecqWGtto6fbXoAHAYbPy-86" value="Telefono" style="text;html=1;align=center;verticalAlign=middle;whiteSpace=wrap;rounded=0;" parent="1" vertex="1">
          <mxGeometry x="290" y="1165" width="60" height="30" as="geometry" />
        </mxCell>
        <mxCell id="ecqWGtto6fbXoAHAYbPy-89" value="" style="ellipse;whiteSpace=wrap;html=1;aspect=fixed;" parent="1" vertex="1">
          <mxGeometry x="250" y="1210" width="40" height="40" as="geometry" />
        </mxCell>
        <mxCell id="ecqWGtto6fbXoAHAYbPy-90" value="Email" style="text;html=1;align=center;verticalAlign=middle;whiteSpace=wrap;rounded=0;" parent="1" vertex="1">
          <mxGeometry x="283" y="1215" width="60" height="30" as="geometry" />
        </mxCell>
        <mxCell id="ecqWGtto6fbXoAHAYbPy-92" value="" style="ellipse;whiteSpace=wrap;html=1;aspect=fixed;" parent="1" vertex="1">
          <mxGeometry x="600" y="1305" width="40" height="40" as="geometry" />
        </mxCell>
        <mxCell id="ecqWGtto6fbXoAHAYbPy-95" value="Nome" style="text;html=1;align=center;verticalAlign=middle;whiteSpace=wrap;rounded=0;" parent="1" vertex="1">
          <mxGeometry x="640" y="1310" width="60" height="30" as="geometry" />
        </mxCell>
        <mxCell id="ecqWGtto6fbXoAHAYbPy-96" value="Descrizione" style="text;html=1;align=center;verticalAlign=middle;whiteSpace=wrap;rounded=0;" parent="1" vertex="1">
          <mxGeometry x="650" y="1360" width="60" height="30" as="geometry" />
        </mxCell>
        <mxCell id="ecqWGtto6fbXoAHAYbPy-97" value="" style="ellipse;whiteSpace=wrap;html=1;aspect=fixed;" parent="1" vertex="1">
          <mxGeometry x="600" y="1355" width="40" height="40" as="geometry" />
        </mxCell>
        <mxCell id="ecqWGtto6fbXoAHAYbPy-98" value="" style="ellipse;whiteSpace=wrap;html=1;aspect=fixed;" parent="1" vertex="1">
          <mxGeometry x="600" y="1405" width="40" height="40" as="geometry" />
        </mxCell>
        <mxCell id="ecqWGtto6fbXoAHAYbPy-99" value="Orari&amp;nbsp;&lt;div&gt;Apertura&lt;/div&gt;" style="text;html=1;align=center;verticalAlign=middle;whiteSpace=wrap;rounded=0;" parent="1" vertex="1">
          <mxGeometry x="650" y="1410" width="60" height="30" as="geometry" />
        </mxCell>
        <mxCell id="ecqWGtto6fbXoAHAYbPy-111" value="" style="ellipse;whiteSpace=wrap;html=1;aspect=fixed;" parent="1" vertex="1">
          <mxGeometry x="1810" y="1010" width="40" height="40" as="geometry" />
        </mxCell>
        <mxCell id="ecqWGtto6fbXoAHAYbPy-112" value="Nome" style="text;html=1;align=center;verticalAlign=middle;whiteSpace=wrap;rounded=0;" parent="1" vertex="1">
          <mxGeometry x="1841" y="1015" width="60" height="30" as="geometry" />
        </mxCell>
        <mxCell id="ecqWGtto6fbXoAHAYbPy-113" value="Cognome" style="text;html=1;align=center;verticalAlign=middle;whiteSpace=wrap;rounded=0;" parent="1" vertex="1">
          <mxGeometry x="1850" y="1065" width="60" height="30" as="geometry" />
        </mxCell>
        <mxCell id="ecqWGtto6fbXoAHAYbPy-114" value="" style="ellipse;whiteSpace=wrap;html=1;aspect=fixed;" parent="1" vertex="1">
          <mxGeometry x="1810" y="1060" width="40" height="40" as="geometry" />
        </mxCell>
        <mxCell id="ecqWGtto6fbXoAHAYbPy-115" value="" style="ellipse;whiteSpace=wrap;html=1;aspect=fixed;" parent="1" vertex="1">
          <mxGeometry x="1810" y="1110" width="40" height="40" as="geometry" />
        </mxCell>
        <mxCell id="ecqWGtto6fbXoAHAYbPy-116" value="Telefono" style="text;html=1;align=center;verticalAlign=middle;whiteSpace=wrap;rounded=0;" parent="1" vertex="1">
          <mxGeometry x="1850" y="1115" width="60" height="30" as="geometry" />
        </mxCell>
        <mxCell id="ecqWGtto6fbXoAHAYbPy-121" value="" style="ellipse;whiteSpace=wrap;html=1;aspect=fixed;" parent="1" vertex="1">
          <mxGeometry x="1810" y="1160" width="40" height="40" as="geometry" />
        </mxCell>
        <mxCell id="ecqWGtto6fbXoAHAYbPy-122" value="Email" style="text;html=1;align=center;verticalAlign=middle;whiteSpace=wrap;rounded=0;" parent="1" vertex="1">
          <mxGeometry x="1850" y="1165" width="60" height="30" as="geometry" />
        </mxCell>
        <mxCell id="ecqWGtto6fbXoAHAYbPy-124" value="Effettua" style="rhombus;whiteSpace=wrap;html=1;" parent="1" vertex="1">
          <mxGeometry x="1560" y="890" width="80" height="80" as="geometry" />
        </mxCell>
        <mxCell id="ecqWGtto6fbXoAHAYbPy-128" value="" style="endArrow=none;html=1;rounded=0;" parent="1" edge="1">
          <mxGeometry width="50" height="50" relative="1" as="geometry">
            <mxPoint x="1160" y="955" as="sourcePoint" />
            <mxPoint x="1160" y="905" as="targetPoint" />
          </mxGeometry>
        </mxCell>
        <mxCell id="ecqWGtto6fbXoAHAYbPy-129" value="Contiene" style="rhombus;whiteSpace=wrap;html=1;" parent="1" vertex="1">
          <mxGeometry x="780" y="890" width="80" height="80" as="geometry" />
        </mxCell>
        <mxCell id="ecqWGtto6fbXoAHAYbPy-133" value="" style="endArrow=none;html=1;rounded=0;" parent="1" edge="1">
          <mxGeometry width="50" height="50" relative="1" as="geometry">
            <mxPoint x="660.64" y="955" as="sourcePoint" />
            <mxPoint x="661" y="905" as="targetPoint" />
          </mxGeometry>
        </mxCell>
        <mxCell id="ecqWGtto6fbXoAHAYbPy-134" value="" style="ellipse;whiteSpace=wrap;html=1;aspect=fixed;" parent="1" vertex="1">
          <mxGeometry x="1110" y="1160" width="40" height="40" as="geometry" />
        </mxCell>
        <mxCell id="ecqWGtto6fbXoAHAYbPy-135" value="Capacità&lt;div&gt;Massima&lt;/div&gt;" style="text;html=1;align=center;verticalAlign=middle;whiteSpace=wrap;rounded=0;" parent="1" vertex="1">
          <mxGeometry x="1150" y="1165" width="60" height="30" as="geometry" />
        </mxCell>
        <mxCell id="ecqWGtto6fbXoAHAYbPy-137" value="Ha" style="rhombus;whiteSpace=wrap;html=1;" parent="1" vertex="1">
          <mxGeometry x="343" y="890" width="80" height="80" as="geometry" />
        </mxCell>
        <mxCell id="ecqWGtto6fbXoAHAYbPy-140" value="" style="endArrow=none;html=1;rounded=0;" parent="1" edge="1">
          <mxGeometry width="50" height="50" relative="1" as="geometry">
            <mxPoint x="230" y="1240" as="sourcePoint" />
            <mxPoint x="230" y="1220" as="targetPoint" />
          </mxGeometry>
        </mxCell>
        <mxCell id="ecqWGtto6fbXoAHAYbPy-144" value="Contiene" style="rhombus;whiteSpace=wrap;html=1;" parent="1" vertex="1">
          <mxGeometry x="440" y="1070" width="80" height="80" as="geometry" />
        </mxCell>
        <mxCell id="ecqWGtto6fbXoAHAYbPy-147" value="" style="endArrow=none;html=1;rounded=0;" parent="1" edge="1">
          <mxGeometry width="50" height="50" relative="1" as="geometry">
            <mxPoint x="530" y="980" as="sourcePoint" />
            <mxPoint x="570" y="980" as="targetPoint" />
          </mxGeometry>
        </mxCell>
        <mxCell id="ecqWGtto6fbXoAHAYbPy-158" value="" style="endArrow=none;html=1;rounded=0;" parent="1" edge="1">
          <mxGeometry width="50" height="50" relative="1" as="geometry">
            <mxPoint x="1690" y="950" as="sourcePoint" />
            <mxPoint x="1690" y="910" as="targetPoint" />
          </mxGeometry>
        </mxCell>
        <mxCell id="ecqWGtto6fbXoAHAYbPy-159" value="" style="endArrow=none;html=1;rounded=0;" parent="1" edge="1">
          <mxGeometry width="50" height="50" relative="1" as="geometry">
            <mxPoint x="473" y="960" as="sourcePoint" />
            <mxPoint x="473" y="905" as="targetPoint" />
          </mxGeometry>
        </mxCell>
        <mxCell id="ecqWGtto6fbXoAHAYbPy-161" value="" style="edgeStyle=orthogonalEdgeStyle;rounded=0;orthogonalLoop=1;jettySize=auto;html=1;entryX=0;entryY=0.5;entryDx=0;entryDy=0;endArrow=doubleBlock;endFill=1;" parent="1" source="ecqWGtto6fbXoAHAYbPy-66" target="ecqWGtto6fbXoAHAYbPy-160" edge="1">
          <mxGeometry relative="1" as="geometry">
            <mxPoint x="1130" y="930" as="sourcePoint" />
            <mxPoint x="1370" y="930" as="targetPoint" />
          </mxGeometry>
        </mxCell>
        <mxCell id="ecqWGtto6fbXoAHAYbPy-160" value="Bloccata" style="rhombus;whiteSpace=wrap;html=1;" parent="1" vertex="1">
          <mxGeometry x="1210" y="890" width="80" height="80" as="geometry" />
        </mxCell>
        <mxCell id="s3HfPH-RgokXCeTYfJpn-1" value="" style="endArrow=none;html=1;rounded=0;" edge="1" parent="1" target="s3HfPH-RgokXCeTYfJpn-2">
          <mxGeometry width="50" height="50" relative="1" as="geometry">
            <mxPoint x="620" y="990" as="sourcePoint" />
            <mxPoint x="620" y="990" as="targetPoint" />
          </mxGeometry>
        </mxCell>
        <mxCell id="s3HfPH-RgokXCeTYfJpn-2" value="" style="ellipse;whiteSpace=wrap;html=1;aspect=fixed;fillColor=#000000;" vertex="1" parent="1">
          <mxGeometry x="600" y="1110" width="40" height="40" as="geometry" />
        </mxCell>
        <mxCell id="s3HfPH-RgokXCeTYfJpn-4" value="" style="endArrow=none;html=1;rounded=0;exitX=0.5;exitY=1;exitDx=0;exitDy=0;edgeStyle=orthogonalEdgeStyle;curved=1;" edge="1" parent="1" source="s3HfPH-RgokXCeTYfJpn-6">
          <mxGeometry width="50" height="50" relative="1" as="geometry">
            <mxPoint x="960" y="900" as="sourcePoint" />
            <mxPoint x="1090" y="1040" as="targetPoint" />
            <Array as="points">
              <mxPoint x="960" y="990" />
              <mxPoint x="1091" y="990" />
            </Array>
          </mxGeometry>
        </mxCell>
        <mxCell id="s3HfPH-RgokXCeTYfJpn-6" value="" style="ellipse;whiteSpace=wrap;html=1;aspect=fixed;fillColor=#000000;" vertex="1" parent="1">
          <mxGeometry x="940" y="840" width="40" height="40" as="geometry" />
        </mxCell>
      </root>
    </mxGraphModel>
  </diagram>
</mxfile>
